<svg width="178" height="177" viewBox="0 0 178 177" fill="none" xmlns="http://www.w3.org/2000/svg">
<path d="M158.289 53.1968L156.017 69.6026L154.556 67.4768L152.068 70.1219L150.168 66.6028L145.904 71.226L142.263 62.1385L138.199 65.6884L136.587 62.3739L131.428 66.7104L129.875 61.7534L133.491 35.6243L152.883 41.5959L158.289 53.1968Z" fill="#EBEBEB"/>
<path d="M152.883 41.5962L158.29 53.1957L151.564 51.1248L152.883 41.5962Z" fill="#DBDBDB"/>
<path d="M155.534 72.8817L152.203 96.9519L126.086 88.9108L129.392 65.0325L130.945 69.9892L136.105 65.6527L137.716 68.9675L141.78 65.4176L145.421 74.5048L149.685 69.8816L151.585 73.4007L154.073 70.7559L155.534 72.8817Z" fill="#EBEBEB"/>
<path d="M118.153 70.0611L91.5363 72.5179L89.4219 21.5539L109.185 19.7297L116.442 28.8081L118.153 70.0611Z" fill="#EBEBEB"/>
<path d="M109.186 19.7297L116.442 28.8081L109.589 29.4407L109.186 19.7297Z" fill="#DBDBDB"/>
<path d="M101.805 54.0193L101.702 52.8699C101.434 50.4871 101.871 47.8226 103.26 45.0345C104.511 42.5692 105.19 40.7751 105.115 38.7775C105.03 36.513 104.021 35.0828 102.144 35.195C101.072 35.2846 99.9014 35.9168 99.1887 36.8227L98.3691 34.0849C99.3116 32.9372 100.982 32.0852 102.559 31.9531C105.983 31.6671 107.649 34.6906 107.775 38.0646C107.889 41.0842 106.839 43.354 105.506 46.0044C104.283 48.4226 103.88 50.4163 104.054 52.6731L104.127 53.825L101.805 54.0193ZM101.384 60.2901C101.322 58.6472 102.023 57.4305 103.065 57.3434C104.107 57.2563 104.864 58.3512 104.926 59.9942C104.985 61.5482 104.345 62.8042 103.243 62.8963C102.202 62.9833 101.442 61.8442 101.384 60.2901Z" fill="#DBDBDB"/>
<path d="M35.2407 45.3523L32.5621 43.5405L32.1907 44.764C32.0815 45.1236 31.8449 45.3534 31.5803 45.3707C31.4341 45.3803 31.2879 45.4019 31.1424 45.4348C30.8813 45.4943 30.6198 45.3374 30.466 45.0174L29.9417 43.9257L27.5501 46.4816L28.0744 47.5729C28.2282 47.8933 28.2436 48.3128 28.1221 48.6626C28.0542 48.8573 27.9937 49.0569 27.9405 49.2605C27.8444 49.6286 27.6225 49.8888 27.3591 49.9274L26.4629 50.0584L26.7517 54.4239L27.651 54.2904C27.9147 54.2512 28.1641 54.4469 28.3072 54.7797C28.3461 54.8699 28.3867 54.9592 28.4287 55.0469C28.471 55.1347 28.5144 55.2208 28.5593 55.3047C28.7235 55.6123 28.7676 56.0254 28.6589 56.3836L28.2849 57.6159L30.9634 59.4277L31.3365 58.2018C31.4459 57.8421 31.683 57.6127 31.9477 57.5957C32.0934 57.5865 32.2389 57.5653 32.3839 57.5327C32.6447 57.474 32.9058 57.6304 33.0596 57.9504L33.5841 59.0425L35.9757 56.4867L35.4512 55.3946C35.2976 55.0746 35.282 54.6554 35.4032 54.306C35.4706 54.112 35.5307 53.9131 35.5834 53.7102C35.6793 53.3421 35.9009 53.0812 36.1646 53.0422L37.0627 52.9095L36.7738 48.544L35.8753 48.6764C35.6126 48.7149 35.3638 48.5199 35.2212 48.1882C35.182 48.0976 35.1412 48.0077 35.0987 47.9188C35.0565 47.831 35.0131 47.745 34.9682 47.6611C34.803 47.352 34.7589 46.9368 34.8683 46.5768L35.2407 45.3523ZM33.7213 49.3911C34.4961 51.0043 34.2477 53.2468 33.1664 54.4027C32.0848 55.5585 30.5794 55.19 29.8045 53.5768C29.0296 51.9636 29.2786 49.7161 30.3601 48.5602C31.4414 47.4048 32.9464 47.7783 33.7213 49.3911Z" fill="#EBEBEB"/>
<path d="M156.258 103.266L154.473 104.802L154.788 105.617C154.881 105.857 154.872 106.151 154.771 106.383C154.715 106.511 154.664 106.644 154.617 106.781C154.533 107.027 154.367 107.185 154.182 107.185H153.551V110.259H154.182C154.367 110.259 154.533 110.417 154.617 110.664C154.664 110.801 154.715 110.933 154.771 111.061C154.872 111.293 154.882 111.588 154.788 111.827L154.473 112.642L156.258 114.178L156.573 113.36C156.666 113.12 156.843 112.988 157.028 113.002C157.078 113.006 157.129 113.007 157.18 113.007C157.23 113.007 157.281 113.006 157.331 113.002C157.516 112.988 157.692 113.119 157.784 113.357L158.102 114.178L159.886 112.642L159.57 111.825C159.477 111.585 159.487 111.29 159.588 111.059C159.644 110.931 159.696 110.799 159.742 110.662C159.826 110.417 159.992 110.259 160.177 110.259H160.808V107.185H160.177C159.992 107.185 159.826 107.027 159.742 106.781C159.696 106.645 159.644 106.513 159.588 106.385C159.487 106.153 159.478 105.859 159.57 105.619L159.886 104.802L158.102 103.266L157.786 104.083C157.693 104.322 157.517 104.454 157.332 104.439C157.282 104.436 157.231 104.434 157.179 104.434C157.129 104.434 157.078 104.436 157.028 104.439C156.842 104.454 156.666 104.322 156.573 104.082L156.258 103.266ZM157.18 106.205C158.112 106.205 158.867 107.331 158.867 108.721C158.867 110.111 158.112 111.24 157.18 111.24C156.248 111.24 155.491 110.111 155.491 108.721C155.491 107.331 156.248 106.205 157.18 106.205Z" fill="#EBEBEB"/>
<path d="M40.6574 32.2715L39.0207 34.1382L39.404 34.8851C39.5167 35.105 39.5333 35.3988 39.4531 35.648C39.4085 35.7857 39.3691 35.9273 39.3347 36.0724C39.273 36.3323 39.1213 36.5213 38.9379 36.5571L38.3125 36.6785L38.5786 39.7271L39.2039 39.6057C39.3874 39.57 39.5663 39.6949 39.6705 39.9225C39.7287 40.0496 39.7911 40.1714 39.8578 40.2875C39.9783 40.4978 40.0125 40.7884 39.9413 41.0437L39.699 41.9124L41.6015 43.0919L41.8438 42.2197C41.915 41.9641 42.0785 41.7991 42.2636 41.7772C42.3139 41.7711 42.3643 41.7633 42.4146 41.7538C42.4649 41.7439 42.515 41.7325 42.5643 41.7187C42.7461 41.6692 42.9317 41.7655 43.044 41.9842L43.4301 42.7368L45.067 40.8702L44.6832 40.1208C44.5705 39.901 44.5541 39.6068 44.6348 39.3576C44.6792 39.2202 44.7186 39.0793 44.753 38.9349C44.815 38.6754 44.9664 38.4867 45.1496 38.451L45.7752 38.3295L45.5092 35.2809L44.8835 35.4023C44.7003 35.4381 44.5216 35.3135 44.4172 35.0858C44.3593 34.9595 44.2969 34.8384 44.2304 34.7226C44.1096 34.5124 44.075 34.2217 44.1462 33.9661L44.3887 33.0953L42.486 31.9158L42.2432 32.787C42.1723 33.0418 42.009 33.2061 41.8246 33.2277C41.7742 33.2337 41.7235 33.2415 41.6724 33.2514C41.6221 33.2613 41.572 33.2727 41.5224 33.2861C41.3397 33.336 41.1534 33.239 41.0404 33.0188L40.6574 32.2715ZM41.826 35.008C42.7502 34.8285 43.5962 35.7999 43.7166 37.1783C43.8369 38.5568 43.1859 39.8213 42.2617 40.0008C41.3376 40.1803 40.4896 39.2068 40.3692 37.8283C40.2489 36.4498 40.9018 35.1874 41.826 35.008Z" fill="#EBEBEB"/>
<path d="M28.4373 112.141C28.5308 108.715 28.4933 105.283 28.3429 101.863C28.0324 94.807 27.2537 87.8063 26.1843 80.9221C25.5824 77.0468 24.841 73.2374 24.0687 69.4319C24.0455 69.3169 23.9225 69.3495 23.9439 69.4691C26.3324 82.8843 28.2921 96.7285 28.1573 110.673C28.1195 114.576 27.8167 118.409 27.5682 122.287C27.5616 122.391 27.676 122.432 27.6919 122.326C28.1846 119.008 28.3448 115.53 28.4373 112.141Z" fill="#EBEBEB"/>
<path d="M23.9441 69.4695C23.9441 69.4695 20.3258 83.1686 21.1358 86.3886C21.946 89.6085 23.6162 90.2953 23.6162 90.2953C23.6162 90.2953 21.4023 95.0099 22.9492 99.4317C24.4964 103.854 27.9337 103.645 28.162 108.658C28.162 108.658 28.3536 87.6945 23.9441 69.4695Z" fill="#EBEBEB"/>
<path d="M27.7697 100.002C27.7742 99.979 27.7731 99.9546 27.7659 99.9301C27.2578 90.6153 26.1499 81.3296 24.2562 72.3723C24.2508 72.3457 24.2216 72.3542 24.2263 72.3818C24.9433 76.3891 25.5813 80.418 26.1264 84.4688C25.6565 83.747 25.0418 83.3321 24.3991 83.0323C24.387 83.0266 24.3811 83.0525 24.3925 83.0599C25.0618 83.4914 25.7028 83.9916 26.1758 84.8373C26.2814 85.6314 26.3849 86.4257 26.4831 87.2212C25.6746 85.8731 24.5532 85.2044 23.431 84.5687C23.4151 84.5598 23.4068 84.5959 23.4223 84.6055C24.5909 85.3152 25.755 86.2296 26.5468 87.7316C26.8228 90.005 27.0644 92.2866 27.2735 94.5748C26.6823 93.6537 25.9527 93.0346 25.1159 92.7305C25.0907 92.7213 25.0767 92.7769 25.1021 92.7878C25.962 93.157 26.7015 93.875 27.2903 94.8786C27.2946 94.8856 27.2991 94.8892 27.3038 94.8938C27.3762 95.6988 27.4446 96.5048 27.5087 97.3119C27.0535 96.7328 26.5503 96.2921 25.9964 95.9512C25.9817 95.9423 25.9738 95.9763 25.9881 95.9855C26.5508 96.3427 27.057 96.8578 27.5027 97.4808C27.5091 97.4896 27.5155 97.4886 27.522 97.4921C27.5822 98.2593 27.6423 99.0267 27.6943 99.7956C26.8648 98.3046 25.839 97.2256 24.6253 96.5271C24.6016 96.5133 24.5895 96.5675 24.6122 96.5823C25.7923 97.3477 26.8325 98.5601 27.6368 100.054C27.6589 100.095 27.6876 100.101 27.713 100.089C27.7913 101.268 27.8613 102.449 27.9192 103.632C27.92 103.648 27.9378 103.65 27.9373 103.633C27.892 102.422 27.8352 101.212 27.7697 100.002Z" fill="white"/>
<path d="M24.8621 81.6705C24.2346 81.0273 23.4372 80.7526 22.6882 80.6595C22.6701 80.6574 22.6687 80.697 22.6863 80.7006C23.4654 80.8733 24.12 81.2939 24.8358 81.7477C24.8669 81.7679 24.8892 81.6985 24.8621 81.6705Z" fill="white"/>
<path d="M25.3001 96.1742C24.8036 95.7296 24.2371 95.4786 23.6682 95.3416C23.6483 95.337 23.6466 95.3827 23.6661 95.3877C24.2438 95.5438 24.7554 95.8503 25.2804 96.2319C25.3027 96.2486 25.3212 96.1934 25.3001 96.1742Z" fill="white"/>
<path d="M37.9506 86.6119C36.4417 88.1943 34.9935 90.0192 33.7626 92.0724C32.4507 94.2608 31.4937 96.7452 30.8254 99.5021C29.4562 105.15 28.7058 111.269 28.6374 117.272C28.599 120.637 28.7998 123.976 29.2825 127.265C29.3001 127.384 29.4199 127.35 29.4078 127.23C28.8178 121.443 28.8394 115.538 29.4733 109.762C30.0954 104.095 31.0715 97.9289 33.4866 93.3234C34.8017 90.8157 36.4414 88.8425 38.0624 86.8034C38.1471 86.6962 38.0382 86.5199 37.9506 86.6119Z" fill="#EBEBEB"/>
<path d="M29.1699 113.191C29.1699 113.191 30.4126 110.069 32.2227 107.37C34.0329 104.671 35.5575 102.753 35.7927 100.967C36.0281 99.1821 33.9795 97.8673 33.9795 97.8673C33.9795 97.8673 36.4845 98.5381 37.17 96.9699C37.8554 95.4021 38.1862 86.3198 38.1862 86.3198C38.1862 86.3198 33.6292 91.1728 31.5058 97.9756C29.3826 104.778 29.1699 113.191 29.1699 113.191Z" fill="#EBEBEB"/>
<path d="M36.6089 88.6484C34.6915 91.4574 32.7618 94.4508 31.6325 98.1413C31.2455 99.4065 30.916 100.719 30.626 102.055C30.6253 102.058 30.6253 102.06 30.6246 102.061C30.5664 102.33 30.5073 102.598 30.4525 102.868C30.4471 102.881 30.4442 102.896 30.4433 102.912C29.8851 105.668 29.4904 108.518 29.1486 111.303C29.1465 111.321 29.1647 111.33 29.1671 111.311C29.3634 109.894 29.5801 108.464 29.8219 107.037C29.8305 107.037 29.8397 107.035 29.8492 107.029C30.2368 106.786 30.6267 106.634 31.0451 106.576C31.0724 106.572 31.0703 106.502 31.0425 106.504C30.6388 106.533 30.2434 106.638 29.8597 106.826C30.0804 105.539 30.3203 104.256 30.5902 102.992C31.47 102.671 32.3882 102.497 33.2929 102.465C33.3022 102.465 33.3038 102.444 33.2941 102.443C32.382 102.38 31.5248 102.497 30.6365 102.78C30.6834 102.563 30.7323 102.347 30.781 102.131C31.375 101.929 31.9717 101.759 32.5795 101.676C32.5904 101.675 32.5895 101.647 32.5786 101.647C31.9833 101.671 31.3966 101.764 30.8175 101.967C31.0656 100.872 31.3335 99.7934 31.6306 98.7424C31.8765 97.8729 32.1689 97.0474 32.491 96.2506C32.9782 96.0859 33.4505 95.9295 33.9499 95.8626C33.9636 95.8608 33.9622 95.8279 33.9487 95.8265C33.4954 95.7826 33.0233 95.8332 32.5847 96.0275C32.8244 95.4502 33.0762 94.8845 33.3459 94.3365C34.3678 93.9988 35.4038 93.6855 36.4492 93.9782C36.4673 93.9832 36.4739 93.9379 36.4561 93.9311C35.461 93.5407 34.4732 93.7662 33.483 94.0582C33.591 93.8437 33.7016 93.632 33.8132 93.4214C34.4404 93.1322 35.0644 92.992 35.7225 92.9739C35.736 92.9736 35.7382 92.9445 35.7242 92.9424C35.1235 92.8568 34.5244 92.9435 33.9439 93.1782C34.7888 91.6124 35.722 90.1419 36.6445 88.6877C36.6877 88.6212 36.6545 88.5819 36.6089 88.6484Z" fill="white"/>
<path d="M36.5592 94.8393C36.2592 94.7915 35.9543 94.7416 35.6528 94.7922C35.6163 94.7982 35.6194 94.8871 35.6562 94.8885C35.9562 94.9016 36.2561 94.8683 36.5561 94.8924C36.5792 94.8945 36.582 94.8428 36.5592 94.8393Z" fill="white"/>
<path d="M33.2776 103.649C32.7987 103.641 32.3204 103.833 31.8731 104.07C31.8619 104.076 31.8681 104.104 31.8797 104.1C32.3434 103.935 32.8127 103.868 33.2812 103.753C33.3196 103.744 33.3177 103.65 33.2776 103.649Z" fill="white"/>
<path d="M32.2958 100.606C32.1015 100.591 31.8912 100.642 31.6997 100.686C31.68 100.691 31.6811 100.739 31.7016 100.739C31.8952 100.744 32.1083 100.752 32.2992 100.697C32.3329 100.688 32.3314 100.609 32.2958 100.606Z" fill="white"/>
<path d="M15.8108 96.25C17.2773 97.0104 18.7319 97.9881 20.0463 99.2254C21.4472 100.544 22.6066 102.225 23.5747 104.225C25.5578 108.324 27.1133 113.017 28.099 117.851C28.6515 120.562 29.0065 123.333 29.1254 126.161C29.1297 126.264 29.0274 126.278 29.0186 126.175C28.5993 121.289 27.6668 116.518 26.2587 112.061C24.8772 107.69 23.1318 103.037 20.4635 100.142C19.0105 98.5659 17.3779 97.5343 15.75 96.4429C15.6648 96.3859 15.7256 96.2061 15.8108 96.25Z" fill="#EBEBEB"/>
<path d="M27.0348 114.733C27.0348 114.733 25.5453 112.635 23.6623 111.074C21.7791 109.514 20.248 108.487 19.781 107.123C19.3139 105.76 20.768 103.99 20.768 103.99C20.768 103.99 18.8447 105.396 18.047 104.363C17.2493 103.331 15.5742 96.095 15.5742 96.095C15.5742 96.095 20.0143 98.4512 22.7865 103.225C25.5591 107.998 27.0348 114.733 27.0348 114.733Z" fill="#EBEBEB"/>
<path d="M26.8034 113.24C24.5826 107.023 21.6195 101.399 17.5592 97.6862C17.5573 97.6844 17.5557 97.6887 17.5573 97.6901C18.6263 98.7061 19.6112 99.8778 20.5292 101.159C19.7073 101.125 18.8707 101.32 18.1421 101.91C18.126 101.924 18.1376 101.956 18.1542 101.948C18.9664 101.538 19.7465 101.269 20.6104 101.329C20.6222 101.329 20.6298 101.32 20.6381 101.313C20.7822 101.517 20.9244 101.724 21.0651 101.933C20.6379 101.96 20.2057 102.05 19.7894 102.185C19.7783 102.189 19.7814 102.215 19.7928 102.211C20.2432 102.081 20.683 102.036 21.1401 102.046C21.8841 103.161 22.5774 104.354 23.2343 105.592C22.9377 105.528 22.6268 105.566 22.3424 105.689C22.3213 105.698 22.3268 105.744 22.3488 105.739C22.6723 105.678 22.9799 105.686 23.301 105.72C23.4225 105.951 23.5455 106.18 23.6646 106.414C22.7516 106.332 21.8571 106.463 20.9699 106.805C20.9569 106.81 20.9604 106.84 20.974 106.836C21.8891 106.568 22.8119 106.482 23.7418 106.567C23.855 106.791 23.9622 107.022 24.0733 107.248C23.5286 107.224 23.0003 107.325 22.4692 107.522C22.449 107.53 22.4547 107.577 22.4753 107.57C23.0217 107.385 23.5773 107.338 24.1357 107.377C24.6135 108.359 25.0711 109.363 25.5108 110.378C25.278 110.307 25.0336 110.346 24.8067 110.441C24.7946 110.446 24.7979 110.472 24.8105 110.47C25.0718 110.424 25.3158 110.474 25.5723 110.524C25.9677 111.442 26.35 112.369 26.7163 113.302C26.7476 113.382 26.8328 113.323 26.8034 113.24Z" fill="white"/>
<path d="M23.3502 108.083C22.9161 108.028 22.4749 108.129 22.0603 108.319C22.0484 108.324 22.0512 108.351 22.0641 108.347C22.491 108.23 22.9142 108.186 23.3468 108.151C23.3751 108.149 23.3805 108.088 23.3502 108.083Z" fill="white"/>
<path d="M19.4763 100.506C19.28 100.473 19.0752 100.511 18.8813 100.558C18.8583 100.564 18.8654 100.614 18.8882 100.611C19.0838 100.58 19.2767 100.591 19.4725 100.582C19.5043 100.58 19.5095 100.512 19.4763 100.506Z" fill="white"/>
<path d="M32.7626 135.291H22.7402L24.1692 119.677L24.5345 115.674H30.9683L31.3334 119.677L32.7626 135.291Z" fill="#DBDBDB"/>
<path d="M31.3341 119.677H24.1699L24.5352 115.674H30.969L31.3341 119.677Z" fill="#C7C7C7"/>
<path d="M31.8891 114.285H23.6152V117.676H31.8891V114.285Z" fill="#DBDBDB"/>
<path d="M16.3672 135.292L34.4067 135.206L52.4461 135.174L88.5251 135.115L124.604 135.174L142.643 135.205L160.683 135.292L142.643 135.378L124.604 135.41L88.5251 135.468L52.4461 135.409L34.4067 135.378L16.3672 135.292Z" fill="#263238"/>
<path d="M89.0007 161.677C126.586 161.677 157.054 156.697 157.054 150.554C157.054 144.411 126.586 139.431 89.0007 139.431C51.4158 139.431 20.9473 144.411 20.9473 150.554C20.9473 156.697 51.4158 161.677 89.0007 161.677Z" fill="#EBEBEB"/>
<path d="M73.1565 148.711C72.6032 148.99 56.7461 149.073 56.1399 148.507C55.9092 148.293 55.7666 144.849 55.6731 140.681C55.6529 139.78 55.6356 138.851 55.6218 137.906L54.3359 125.291L64.9364 125.19L65.937 137.808L65.8964 140.583C65.8964 140.583 71.9772 144.602 72.5971 145.33C73.2141 146.058 73.7099 148.431 73.1565 148.711Z" fill="#EB9481"/>
<path d="M73.1558 148.711C72.6025 148.99 56.7453 149.073 56.1392 148.507C55.8591 148.245 55.7063 143.215 55.6211 137.906L65.9363 137.808L65.8957 140.583C65.8957 140.583 71.9764 144.602 72.5964 145.33C73.2134 146.058 73.7092 148.432 73.1558 148.711Z" fill="white"/>
<path d="M73.1572 148.711C72.604 148.99 56.7468 149.073 56.1407 148.507C55.91 148.293 55.7673 144.849 55.6738 140.681L65.8972 140.583C65.8972 140.583 71.9779 144.602 72.5978 145.33C73.2149 146.058 73.7107 148.432 73.1572 148.711Z" fill="#A6A6A6"/>
<path d="M72.9262 147.766C70.2679 147.683 59.5406 147.72 56.9086 147.939C56.8872 147.941 56.8872 147.963 56.9086 147.964C59.5423 148.132 70.269 147.965 72.9265 147.831C72.9825 147.828 72.9822 147.768 72.9262 147.766Z" fill="#3A1F1F"/>
<path d="M71.5746 144.484C70.9443 144.449 70.3291 144.899 69.9866 145.461C69.6577 146.001 69.3769 146.759 69.3976 147.581C69.3983 147.604 69.4275 147.605 69.4296 147.581C69.5777 146.028 70.5206 144.66 71.5746 144.534C71.5962 144.531 71.5962 144.486 71.5746 144.484Z" fill="#3A1F1F"/>
<path d="M66.9283 140.972C65.8643 140.956 64.6321 141.522 63.9739 142.823C63.9485 142.874 63.9967 142.927 64.0283 142.903C64.9883 142.158 65.9013 141.602 66.9468 141.167C67.0208 141.137 67.0044 140.973 66.9283 140.972Z" fill="#3A1F1F"/>
<path d="M67.7505 141.445C66.6865 141.429 65.4543 141.996 64.7962 143.297C64.7708 143.347 64.8192 143.401 64.8505 143.376C65.8105 142.632 66.7236 142.076 67.769 141.641C67.8428 141.61 67.8267 141.446 67.7505 141.445Z" fill="#3A1F1F"/>
<path d="M68.5729 141.919C67.5089 141.902 66.2767 142.469 65.6185 143.77C65.5929 143.82 65.6415 143.874 65.6729 143.849C66.6329 143.105 67.5459 142.549 68.5916 142.114C68.6654 142.083 68.649 141.92 68.5729 141.919Z" fill="#3A1F1F"/>
<path d="M69.3969 142.392C68.3329 142.375 67.1009 142.942 66.4428 144.243C66.4171 144.294 66.4655 144.347 66.4971 144.323C67.4571 143.578 68.3701 143.022 69.4156 142.587C69.4894 142.556 69.473 142.393 69.3969 142.392Z" fill="#3A1F1F"/>
<path d="M57.5775 144.17C56.384 144.181 56.3937 146.948 57.5894 146.937C58.783 146.925 58.7732 144.158 57.5775 144.17Z" fill="#3A1F1F"/>
<path d="M68.0691 136.731C67.5289 136.068 66.852 136.723 66.5217 137.416C65.9865 138.539 65.6208 140.111 65.5645 141.479C65.5633 141.513 65.5804 141.526 65.5977 141.525C65.6208 141.638 65.7109 141.733 65.7893 141.652C66.5449 140.866 67.4181 140.166 67.9896 139.058C68.3233 138.411 68.5798 137.359 68.0691 136.731ZM66.7716 140.111C66.4063 140.511 66.0299 140.881 65.6746 141.301C65.8628 140.509 66.0271 139.71 66.2687 138.947C66.384 138.583 66.507 138.212 66.6548 137.874C66.8848 137.349 67.926 136.017 68.0359 137.743C68.0964 138.695 67.2071 139.634 66.7716 140.111Z" fill="#3A1F1F"/>
<path d="M62.922 142.081C63.8488 142.289 64.8036 141.89 65.7131 141.675C65.8075 141.652 65.8284 141.491 65.7921 141.385C65.8056 141.368 65.8118 141.341 65.7952 141.318C65.1188 140.39 64.1244 139.635 63.2168 139.38C62.6565 139.222 61.8645 139.45 61.7833 140.487C61.7069 141.467 62.3809 141.96 62.922 142.081ZM62.2774 141.181C61.5543 139.824 62.9237 139.707 63.3336 139.848C63.597 139.938 63.8581 140.078 64.1104 140.221C64.6391 140.521 65.1292 140.928 65.6328 141.304C65.1817 141.369 64.7381 141.491 64.2891 141.58C63.7539 141.687 62.6762 141.93 62.2774 141.181Z" fill="#3A1F1F"/>
<path d="M38.7598 66.9778C38.7598 66.9778 51.0702 98.2147 51.3999 100.408C51.9064 103.778 54.5913 137.059 54.5913 137.059L67.4004 136.715C67.4004 136.715 65.1928 107.372 63.1019 97.7043C61.5957 90.7407 50.7316 67.6465 50.7316 67.6465L38.7598 66.9778Z" fill="#3A1F1F"/>
<path d="M66.2365 133.786C64.3969 133.766 57.8783 133.656 55.4298 133.997C55.411 134 55.4117 134.046 55.4302 134.05C56.273 134.23 64.3983 133.949 66.2372 133.861C66.2719 133.86 66.2711 133.786 66.2365 133.786Z" fill="#3A1F1F"/>
<path d="M40.8619 69.8441C41.6686 71.7313 42.5197 73.5792 43.3444 75.4501C44.1696 77.3217 44.9918 79.1961 45.8032 81.0808C47.4249 84.8477 49.0043 88.6539 50.5548 92.4838C51.282 94.28 51.9746 96.0929 52.4739 98.0522C52.9685 99.9929 53.3053 102.012 53.5545 104.048C53.8056 106.098 53.9708 108.169 54.1269 110.238C54.2931 112.442 54.4568 114.646 54.6218 116.85C54.9593 121.359 55.2968 125.869 55.6343 130.378C55.6755 130.931 55.7161 131.484 55.7534 132.038C55.7589 132.119 55.6615 132.136 55.6547 132.054C55.2778 127.573 54.9647 123.079 54.6223 118.592C54.4519 116.358 54.2815 114.125 54.111 111.891C53.9525 109.814 53.8018 107.734 53.5858 105.668C53.3734 103.639 53.0979 101.617 52.6837 99.653C52.2511 97.6005 51.6383 95.6737 50.9127 93.8074C49.4282 89.9888 47.8575 86.2354 46.2862 82.4918C44.7013 78.7161 43.1031 74.9506 41.4455 71.241C41.2409 70.7829 41.0345 70.3277 40.8223 69.8767C40.8057 69.8413 40.8462 69.8076 40.8619 69.8441Z" fill="#3A1F1F"/>
<path d="M42.7958 150.553C42.2118 150.5 27.1328 141.387 26.7125 140.523C26.6985 140.494 26.6902 140.438 26.6895 140.357C26.6923 139.584 27.7366 136.877 28.6092 133.324C28.6638 133.097 29.0531 132.043 29.5932 130.622C31.078 126.717 33.7053 120.029 33.7053 120.029L43.5615 125.87L38.8438 136.404L38.1095 138.953C38.1095 138.953 42.7353 146.084 43.126 147.104C43.5143 148.125 43.3778 150.603 42.7958 150.553Z" fill="#EB9481"/>
<path d="M42.7958 150.553C42.2118 150.5 27.1328 141.387 26.7125 140.523C26.6985 140.494 26.6902 140.438 26.6895 140.357C26.6923 139.583 27.7366 136.876 28.6092 133.324C28.6638 133.097 29.0531 132.043 29.5932 130.622L38.844 136.404L38.1097 138.953C38.1097 138.953 42.7356 146.084 43.1262 147.104C43.5143 148.124 43.3778 150.602 42.7958 150.553Z" fill="white"/>
<path d="M42.7946 150.552C42.2114 150.501 27.132 141.387 26.7126 140.522C26.5524 140.196 27.2267 137.124 28.608 133.325L38.1094 138.955C38.1094 138.955 42.7352 146.083 43.1268 147.105C43.5151 148.125 43.3777 150.602 42.7946 150.552Z" fill="#A6A6A6"/>
<path d="M42.8199 149.547C40.3768 147.983 30.4233 142.015 27.9284 140.745C27.9082 140.735 27.9028 140.755 27.9222 140.768C30.3212 142.398 40.3068 148.245 42.8038 149.607C42.8565 149.636 42.8714 149.58 42.8199 149.547Z" fill="#3A1F1F"/>
<path d="M42.3932 145.749C41.8176 145.364 41.1343 145.436 40.6756 145.766C40.2349 146.082 39.7839 146.628 39.5964 147.401C39.591 147.423 39.618 147.44 39.6263 147.419C40.1542 146.063 41.3722 145.322 42.3811 145.795C42.4012 145.804 42.4131 145.762 42.3932 145.749Z" fill="#3A1F1F"/>
<path d="M38.9684 139.893C37.9863 139.282 36.7016 139.118 35.7642 139.956C35.7278 139.989 35.7594 140.065 35.7948 140.06C36.872 139.907 37.8579 139.903 38.9366 140.084C39.0128 140.097 39.0386 139.937 38.9684 139.893Z" fill="#3A1F1F"/>
<path d="M39.611 140.792C38.6289 140.181 37.3442 140.017 36.4067 140.855C36.3704 140.887 36.402 140.964 36.4374 140.959C37.5144 140.806 38.5005 140.801 39.5792 140.983C39.6554 140.996 39.6812 140.836 39.611 140.792Z" fill="#3A1F1F"/>
<path d="M40.2555 141.691C39.2734 141.08 37.9887 140.916 37.0513 141.754C37.015 141.787 37.0465 141.863 37.0819 141.858C38.1589 141.705 39.145 141.701 40.2237 141.883C40.2996 141.895 40.3258 141.735 40.2555 141.691Z" fill="#3A1F1F"/>
<path d="M40.8979 142.59C39.9158 141.979 38.6311 141.815 37.6939 142.653C37.6576 142.685 37.6889 142.762 37.7245 142.757C38.8018 142.604 39.7876 142.6 40.8663 142.781C40.9423 142.794 40.9684 142.634 40.8979 142.59Z" fill="#3A1F1F"/>
<path d="M29.4962 137.625C28.3869 136.968 27.7001 139.538 28.8113 140.196C29.9208 140.854 30.6077 138.283 29.4962 137.625Z" fill="#3A1F1F"/>
<path d="M41.0913 136.6C40.7574 135.683 39.9654 135.91 39.4848 136.369C38.7063 137.11 37.9718 138.363 37.5757 139.599C37.5659 139.63 37.5785 139.652 37.5951 139.66C37.5878 139.778 37.6476 139.916 37.7409 139.885C38.6389 139.579 39.6243 139.419 40.4327 138.712C40.9045 138.299 41.4069 137.467 41.0913 136.6ZM39.0386 139.007C38.5993 139.173 38.1574 139.306 37.7223 139.496C38.0959 138.868 38.4493 138.218 38.8651 137.646C39.0635 137.373 39.2709 137.098 39.4928 136.868C39.8382 136.509 41.1383 135.858 40.806 137.519C40.6228 138.435 39.5621 138.809 39.0386 139.007Z" fill="#3A1F1F"/>
<path d="M34.9747 138.679C35.7816 139.39 36.7668 139.555 37.6642 139.864C37.7572 139.897 37.8173 139.759 37.8104 139.64C37.827 139.632 37.8398 139.61 37.8301 139.579C37.4363 138.341 36.7044 137.085 35.9276 136.34C35.4477 135.88 34.6562 135.649 34.3206 136.564C34.0028 137.43 34.5036 138.264 34.9747 138.679ZM34.6038 137.484C34.2751 135.821 35.5737 136.479 35.9181 136.839C36.1395 137.071 36.3463 137.346 36.5442 137.62C36.9588 138.194 37.311 138.846 37.6834 139.476C37.2488 139.283 36.8072 139.148 36.3681 138.98C35.845 138.78 34.7848 138.401 34.6038 137.484Z" fill="#3A1F1F"/>
<path d="M39.6047 135.815L28.5723 129.17C28.5723 129.17 42.2512 99.1699 42.3526 96.9372C42.442 94.9591 36.4339 77.7472 36.1971 72.731C35.9415 67.3177 37.6892 63.1277 39.6095 60.5276L50.9908 67.7439C50.9908 67.7439 49.7896 70.6102 47.8974 72.2057C47.8974 72.2057 53.7339 92.1008 53.4028 98.218C53.0701 104.368 39.6047 135.815 39.6047 135.815Z" fill="#3A1F1F"/>
<path d="M40.0951 132.685C38.4998 131.662 38.9673 131.922 37.3641 130.925C36.5797 130.438 31.4227 127.24 30.6376 126.977C30.6203 126.971 30.6092 127.012 30.6243 127.026C31.3107 127.653 36.504 130.715 37.2946 131.181C38.9101 132.131 38.4533 131.832 40.0759 132.755C40.1065 132.772 40.125 132.704 40.0951 132.685Z" fill="#3A1F1F"/>
<path d="M49.7717 71.8418C48.586 72.222 47.4228 72.8468 46.3054 73.5183C46.2615 73.5449 46.2822 73.6419 46.3292 73.6214C47.4926 73.1148 48.6759 72.6415 49.818 72.0429C49.9077 71.9958 49.8626 71.8124 49.7717 71.8418Z" fill="#3A1F1F"/>
<path d="M48.4222 71.143C48.3099 71.4347 48.2147 71.7419 48.1298 72.0524C48.064 72.2935 47.9795 72.5519 47.9805 72.8149C47.9807 72.8659 48.0268 72.8783 48.0479 72.8471C48.1801 72.6531 48.2503 72.3699 48.3339 72.1281C48.4307 71.8481 48.5318 71.5706 48.6232 71.2863C48.6837 71.098 48.4912 70.9631 48.4222 71.143Z" fill="#3A1F1F"/>
<path d="M48.5592 69.5472C48.629 69.2859 48.6993 69.025 48.7728 68.7663C48.849 68.4983 48.9376 68.2342 48.9997 67.9584C49.0095 67.9149 49.0557 67.9443 49.0441 67.9882C48.9746 68.2498 48.9292 68.5287 48.8735 68.7978C48.8175 69.0679 48.7584 69.3362 48.6986 69.6045C48.587 70.104 48.4505 70.5996 48.3067 71.0818C48.4928 71.0782 48.6843 71.0658 48.8535 70.9402C49.0372 70.8035 49.1485 70.5125 49.239 70.2495C49.3394 69.9575 49.4317 69.6587 49.5349 69.3688C49.6491 69.048 49.7753 68.7309 49.8506 68.3836C49.8601 68.3397 49.9054 68.3691 49.895 68.413C49.7236 69.1298 49.5551 69.8456 49.2886 70.5062C49.1839 70.7657 49.0989 71.0358 48.906 71.1374C48.6988 71.2464 48.4721 71.2251 48.2564 71.2018C48.2298 71.2128 48.1954 71.1873 48.2047 71.1391C48.3065 70.6049 48.4211 70.0633 48.5592 69.5472Z" fill="#3A1F1F"/>
<path d="M48.0752 72.8535C48.4796 74.1325 48.8354 75.4069 49.2135 76.6813C49.583 77.9267 49.929 79.1865 50.2649 80.4524C50.9436 83.0108 51.5517 85.6155 52.085 88.2496C52.3489 89.5531 52.5919 90.8657 52.8117 92.1872C53.0319 93.5122 53.2472 94.8507 53.3386 96.2115C53.4302 97.5765 53.3649 98.9263 53.11 100.246C52.8513 101.586 52.5105 102.755 52.1056 104.008C51.8583 104.774 51.7731 104.67 51.893 104.284C52.2326 103.187 53.1221 99.864 53.0576 97.0699C53.0265 95.7219 52.8409 94.3944 52.6368 93.0846C52.4284 91.7475 52.1932 90.42 51.9366 89.1017C51.4311 86.5044 50.8307 83.9585 50.2129 81.4167C49.8668 79.9926 49.4954 78.583 49.1442 77.162C48.7903 75.7304 48.4255 74.4422 48.033 72.879C48.0225 72.8379 48.0626 72.8138 48.0752 72.8535Z" fill="#3A1F1F"/>
<path d="M39.6979 68.6288C39.8956 68.5198 40.1697 68.7003 40.3712 68.7506C40.6297 68.8153 40.891 68.8546 41.153 68.8681C41.4112 68.8812 41.6716 68.8656 41.9286 68.8281C42.1856 68.7909 42.4479 68.7435 42.6712 68.5353C43.0476 68.1849 43.3628 67.5675 43.6179 67.0358C43.8982 66.4513 44.1892 65.7794 44.3563 65.1026C44.3665 65.0612 44.4066 65.0895 44.3978 65.1302C44.3148 65.5249 44.2531 65.9228 44.1474 66.3083C44.048 66.6712 43.9196 67.0181 43.7834 67.3523C43.5289 67.9767 43.237 68.6433 42.8008 69.0146C42.343 69.4044 41.7532 69.381 41.2427 69.3371C40.9475 69.3117 40.6534 69.2536 40.3639 69.1626C40.155 69.0968 39.8035 69.0469 39.6704 68.7732C39.6464 68.7251 39.659 68.6504 39.6979 68.6288Z" fill="#3A1F1F"/>
<path d="M31.722 126.033C33.5354 121.94 35.3152 117.813 37.0629 113.657C38.8151 109.489 40.5351 105.291 42.2311 101.072C42.6367 100.063 43.1054 99.0544 43.3667 97.9368C43.6508 96.7219 43.4894 95.5449 43.2322 94.3561C42.7603 92.1758 42.1727 90.0543 41.5383 87.9689C40.902 85.8775 40.2171 83.8204 39.543 81.7558C38.8747 79.708 38.1634 77.6533 37.6565 75.5014C37.1723 73.4457 36.9879 71.3139 37.3596 69.1818C37.7284 67.0663 38.5261 65.1667 39.3591 63.3939C39.5789 62.9262 39.8027 62.4628 40.0232 61.9959C40.04 61.9605 40.0761 62.0034 40.0585 62.0388C39.1405 63.887 38.2453 65.8432 37.707 68.0132C37.441 69.0855 37.2687 70.2144 37.2518 71.3599C37.2345 72.5221 37.3809 73.6751 37.6104 74.782C38.0569 76.9344 38.7615 78.9723 39.418 80.9944C40.0892 83.0614 40.7784 85.116 41.4256 87.2004C42.0768 89.2975 42.6858 91.4264 43.1864 93.6148C43.4092 94.5891 43.6577 95.6086 43.643 96.6525C43.6268 97.7959 43.2609 98.8254 42.8821 99.7893C41.2321 103.986 39.5193 108.131 37.7854 112.251C36.0448 116.388 34.2697 120.492 32.4672 124.568C32.2398 125.082 32.012 125.596 31.7839 126.109C31.7557 126.172 31.694 126.097 31.722 126.033Z" fill="#3A1F1F"/>
<path d="M51.6228 48.664C52.65 52.0274 57.8393 56.662 60.2698 57.16C62.0185 57.5183 67.3279 57.6415 69.1487 57.2269C71.2812 56.7413 69.6519 48.1539 68.3911 48.3738C64.9263 48.978 61.9841 49.6506 61.0592 49.6506C59.93 49.6506 53.8177 46.7245 53.0813 46.3128C51.2787 45.3049 51.0402 46.7563 51.6228 48.664Z" fill="#EB9481"/>
<path d="M51.6556 49.5543C52.9559 52.4249 57.2794 57.1175 57.2794 57.1175L57.8794 55.1348L59.8649 48.5805C59.8649 48.5805 55.8946 46.7117 53.2818 45.8791C52.9289 45.7662 52.6177 45.6985 52.3469 45.6805C50.679 45.5463 50.5342 47.0848 51.6556 49.5543Z" fill="#FFC727"/>
<path d="M51.6556 49.5543C52.9559 52.4249 57.2794 57.1175 57.2794 57.1175L57.8794 55.1348C56.2672 52.3435 53.7785 48.1128 52.3469 45.6805C50.679 45.5463 50.5342 47.0848 51.6556 49.5543Z" fill="#263238"/>
<path d="M56.4994 55.7925C56.8289 54.5878 58.2968 49.7274 58.6611 48.7075C58.6865 48.6367 58.7223 48.6424 58.7021 48.7206C57.773 52.3636 56.8948 54.6508 56.5315 55.8088C56.5225 55.8378 56.4911 55.8229 56.4994 55.7925Z" fill="#263238"/>
<path d="M67.7559 48.4675C69.8648 48.0547 72.4733 47.3492 74.6822 48.7478C75.1156 49.0222 75.2724 49.504 75.2724 49.504C76.27 50.1047 76.3794 50.9876 76.3794 50.9876C77.1937 51.9713 77.2224 52.8974 77.2224 52.8974C77.2224 52.8974 78.3884 53.6217 78.2118 54.7456C78.0165 56.0069 76.4171 54.7428 75.2527 54.8501C72.5846 55.0954 68.8383 56.5574 68.0736 56.7422L67.7559 48.4675Z" fill="#EB9481"/>
<path d="M72.3366 52.1764C73.1227 52.1275 73.894 52.0489 74.6805 52.159C75.5435 52.2797 76.3601 52.6121 77.1974 52.9194C77.2235 52.929 77.2352 52.8759 77.2105 52.8603C75.754 51.9463 73.8866 51.7062 72.3347 52.1233C72.297 52.1332 72.297 52.1788 72.3366 52.1764Z" fill="#263238"/>
<path d="M72.0016 49.796C72.7684 49.8116 74.1158 49.8523 76.3707 51.024C76.378 51.0279 76.3847 51.0106 76.3771 51.0046C74.9809 49.9535 73.5493 49.5797 72.0023 49.7415C71.9541 49.7465 71.9508 49.795 72.0016 49.796Z" fill="#263238"/>
<path d="M71.8398 48.5118C73.1428 48.6127 73.9559 48.9221 75.2665 49.5097C75.2738 49.5129 75.2798 49.4949 75.2719 49.4899C73.8294 48.589 73.2375 48.5058 71.8358 48.4449C71.7879 48.4424 71.7891 48.5079 71.8398 48.5118Z" fill="#263238"/>
<path d="M72.051 55.4495C71.7121 55.6866 71.7932 55.9536 72.4416 56.1776C73.0974 56.4063 75.784 56.4676 75.6893 57.8673C75.5958 59.2723 71.7947 59.0925 70.734 58.5962C69.6724 58.1034 68.0742 56.7426 68.0742 56.7426C68.8185 56.555 70.5945 55.8445 72.051 55.4495Z" fill="#EB9481"/>
<path d="M54.4456 54.0258C54.4292 54.6304 54.3893 55.246 54.3323 55.8563C54.3378 55.8344 54.3442 55.8128 54.3497 55.7908C54.4287 55.4722 54.5056 55.1455 54.6015 54.8375C54.6065 54.8212 54.6257 54.8258 54.6233 54.8456C54.5815 55.1798 54.503 55.5154 54.4175 55.8308C54.3767 55.9813 54.3352 56.1317 54.2915 56.2808C54.2621 56.5526 54.2293 56.8227 54.1926 57.0886C54.1225 57.5948 53.8019 59.7482 53.729 60.1121C53.7136 60.1886 53.6526 60.1712 53.6564 60.0855C53.674 59.6891 53.9429 57.4465 53.9972 56.9388C54.1017 55.9639 54.2452 54.9692 54.4202 54.0166C54.4242 53.9939 54.446 54.0045 54.4456 54.0258Z" fill="#263238"/>
<path d="M51.9708 70.1186C51.3378 70.6053 50.5214 71.3594 46.843 70.2793C46.613 70.2096 46.3818 70.1253 46.1502 70.0227C42.7006 68.4771 38.5634 62.4265 38.3301 62C38.3301 62 43.8084 48.7494 50.8174 44.5842C51.6836 44.0695 53.1178 45.0621 53.9117 46.2976C54.1953 46.739 54.8105 49.9902 54.5744 52.625C54.3358 55.2559 52.6083 69.6364 51.9708 70.1186Z" fill="#FFC727"/>
<path d="M51.48 52.5044C51.5002 52.789 51.485 53.0662 51.4617 53.3416C51.434 53.6163 51.3976 53.8892 51.326 54.1547C51.3056 53.8701 51.3207 53.5929 51.3442 53.3175C51.3722 53.0428 51.4086 52.7699 51.48 52.5044Z" fill="white"/>
<path d="M49.0913 61.5278C49.1115 61.8124 49.0963 62.0896 49.073 62.3654C49.0453 62.6401 49.009 62.913 48.9373 63.1785C48.9169 62.8939 48.9321 62.6167 48.9556 62.341C48.9838 62.0663 49.0199 61.7933 49.0913 61.5278Z" fill="white"/>
<path d="M45.0308 54.7085C45.0509 54.9931 45.0358 55.2703 45.0125 55.5457C44.9847 55.8204 44.9484 56.0933 44.8767 56.3588C44.8563 56.0742 44.8715 55.797 44.895 55.5213C44.9233 55.2469 44.9596 54.974 45.0308 54.7085Z" fill="white"/>
<path d="M53.0464 61.0701C53.0666 61.3547 53.0514 61.6319 53.0281 61.9073C53.0004 62.182 52.964 62.4549 52.8924 62.7204C52.872 62.4358 52.8872 62.1586 52.9106 61.8828C52.9387 61.6085 52.975 61.3356 53.0464 61.0701Z" fill="white"/>
<path d="M47.8301 53.5377C48.0209 53.5076 48.2067 53.5303 48.3916 53.565C48.5758 53.6064 48.7588 53.6605 48.9368 53.7674C48.7459 53.7979 48.5601 53.7752 48.3752 53.7402C48.1911 53.6984 48.0083 53.6443 47.8301 53.5377Z" fill="white"/>
<path d="M43.2207 60.0572C43.4115 60.0271 43.5974 60.0498 43.782 60.0845C43.9662 60.1259 44.1492 60.1801 44.3272 60.287C44.1363 60.3174 43.9505 60.2948 43.7659 60.2597C43.5814 60.218 43.3987 60.1638 43.2207 60.0572Z" fill="white"/>
<path d="M48.6445 67.1129C48.8353 67.0828 49.0212 67.1055 49.2058 67.1402C49.39 67.1816 49.573 67.2357 49.751 67.3426C49.5602 67.3731 49.3743 67.3504 49.1897 67.3154C49.0055 67.2736 48.8225 67.2195 48.6445 67.1129Z" fill="white"/>
<path d="M41.8008 64.5499C41.9916 64.5198 42.1774 64.5425 42.3623 64.5772C42.5465 64.6186 42.7295 64.6727 42.9075 64.7797C42.7167 64.8101 42.5308 64.7874 42.3459 64.7524C42.1618 64.7103 41.9788 64.6561 41.8008 64.5499Z" fill="white"/>
<path d="M51.4453 46.1625C51.6361 46.1324 51.822 46.155 52.0068 46.1897C52.191 46.2311 52.3738 46.2853 52.5518 46.3922C52.3609 46.4226 52.1751 46.4 51.9905 46.3649C51.8063 46.3228 51.6233 46.2687 51.4453 46.1625Z" fill="white"/>
<path d="M50.106 48.4207C49.9852 48.643 49.8433 48.8232 49.6962 48.9934C49.5464 49.1584 49.3914 49.3131 49.2148 49.4249C49.3354 49.2023 49.4776 49.0221 49.6247 48.8522C49.7745 48.6876 49.9297 48.5329 50.106 48.4207Z" fill="white"/>
<path d="M42.7974 54.8372C42.6766 55.0595 42.5347 55.2397 42.3876 55.4099C42.2378 55.5749 42.0828 55.7296 41.9062 55.8418C42.0268 55.6191 42.169 55.439 42.3161 55.269C42.4661 55.1041 42.6211 54.9497 42.7974 54.8372Z" fill="white"/>
<path d="M51.9224 57.7354C51.8016 57.9577 51.6597 58.1379 51.5126 58.3081C51.3628 58.4731 51.2078 58.6278 51.0312 58.7397C51.1518 58.517 51.294 58.3368 51.4411 58.1669C51.5911 58.0026 51.7461 57.8479 51.9224 57.7354Z" fill="white"/>
<path d="M46.0123 63.2854C45.8915 63.5077 45.7496 63.6879 45.6024 63.8582C45.4526 64.0231 45.2977 64.1778 45.1211 64.2897C45.2417 64.067 45.3838 63.8868 45.531 63.7169C45.6807 63.5527 45.8357 63.398 46.0123 63.2854Z" fill="white"/>
<path d="M54.1863 50.1509C54.0655 50.3732 53.9236 50.5534 53.7765 50.7236C53.6267 50.8886 53.4717 51.0433 53.2949 51.1552C53.4155 50.9325 53.5577 50.7523 53.7048 50.5824C53.855 50.4178 54.01 50.2631 54.1863 50.1509Z" fill="white"/>
<path d="M54.062 56.5841C53.9129 56.404 53.7921 56.1923 53.678 55.9728C53.5674 55.7494 53.4637 55.5183 53.3887 55.2549C53.538 55.4347 53.6588 55.6468 53.7727 55.8662C53.8828 56.09 53.9865 56.3211 54.062 56.5841Z" fill="white"/>
<path d="M40.8921 61.0146C40.743 60.8344 40.6222 60.6227 40.5081 60.4032C40.3975 60.1798 40.2937 59.9487 40.2188 59.6853C40.368 59.8651 40.4888 60.0772 40.6028 60.2967C40.7131 60.52 40.8168 60.7512 40.8921 61.0146Z" fill="white"/>
<path d="M52.4626 66.2885C52.3136 66.1083 52.1928 65.8966 52.0786 65.6771C51.968 65.4538 51.8643 65.2226 51.7891 64.9592C51.9383 65.1391 52.0591 65.3511 52.1731 65.5706C52.2837 65.794 52.3871 66.0255 52.4626 66.2885Z" fill="white"/>
<path d="M46.6636 51.2604C46.5145 51.0802 46.3937 50.8685 46.2795 50.6491C46.1689 50.4257 46.0652 50.1945 45.9902 49.9312C46.1395 50.111 46.2603 50.323 46.3742 50.5425C46.4846 50.7659 46.5883 50.997 46.6636 51.2604Z" fill="white"/>
<path d="M46.7651 69.2892C46.6161 69.109 46.4953 68.8974 46.3811 68.6779C46.2705 68.4545 46.1668 68.2233 46.0918 67.96C46.2411 68.1398 46.3619 68.3518 46.4758 68.5713C46.5859 68.7947 46.6896 69.0259 46.7651 69.2892Z" fill="white"/>
<path d="M47.7514 58.654C47.6024 58.4738 47.4816 58.2621 47.3674 58.0426C47.2568 57.8192 47.1531 57.5881 47.0781 57.3247C47.2274 57.5045 47.3482 57.7166 47.4621 57.9361C47.5725 58.1594 47.6762 58.3906 47.7514 58.654Z" fill="white"/>
<path d="M52.624 49.8248C51.731 49.577 50.8891 46.8197 50.7833 44.9647C50.7764 44.8376 51.2015 43.8277 51.6787 42.5639C51.9664 41.7953 52.2747 40.9295 52.5177 40.1092C52.5671 39.9404 52.8597 40.5032 52.8597 40.5032L53.4955 41.2286L55.5971 43.6322C55.5971 43.6322 54.7487 45.1286 54.3309 46.5627C54.297 46.683 54.2718 46.7995 54.255 46.9149C54.2517 46.9312 54.2491 46.9517 54.2436 46.974C54.1238 47.6597 53.4872 50.0634 52.624 49.8248Z" fill="#EB9481"/>
<path d="M54.2556 46.9152C54.2523 46.9315 54.2497 46.952 54.2442 46.9743C54.1294 46.9262 54.009 46.8579 53.8814 46.7687C51.5814 45.1608 52.596 40.5645 52.596 40.5645L53.4964 41.2289L55.598 43.6326C55.598 43.6326 54.7495 45.1289 54.3318 46.563C54.2976 46.6833 54.2727 46.7998 54.2556 46.9152Z" fill="#263238"/>
<path d="M58.0098 33.8357C58.0098 33.8357 59.0604 34.8311 59.0673 36.6004C59.0742 38.3701 58.6017 40.1011 58.492 40.1631C58.3824 40.225 58.0098 33.8357 58.0098 33.8357Z" fill="#263238"/>
<path d="M52.795 34.754C52.1632 36.6143 52.195 42.4716 52.9842 43.981C54.1279 46.1691 56.3313 46.9231 57.6611 44.7598C58.9502 42.6627 58.8181 35.0305 57.906 33.6081C56.5627 31.5131 53.7284 32.0063 52.795 34.754Z" fill="#EB9481"/>
<path d="M56.1438 39.4469C56.1414 39.4317 56.1231 39.4664 56.1239 39.483C56.1386 39.882 56.1103 40.3425 55.8701 40.4834C55.8628 40.4876 55.8637 40.5078 55.8728 40.5057C56.167 40.4331 56.2005 39.8211 56.1438 39.4469Z" fill="#263238"/>
<path d="M55.899 39.038C55.4678 39.004 55.4542 40.2929 55.8537 40.3245C56.2469 40.3552 56.2605 39.0663 55.899 39.038Z" fill="#263238"/>
<path d="M57.6094 39.4322C57.6115 39.417 57.6301 39.4517 57.6296 39.468C57.6168 39.867 57.6474 40.3272 57.888 40.4656C57.8956 40.4698 57.8945 40.49 57.8857 40.4879C57.5909 40.4185 57.5544 39.8071 57.6094 39.4322Z" fill="#263238"/>
<path d="M57.8534 39.0209C58.2844 38.9823 58.3043 40.2708 57.9051 40.3066C57.5121 40.342 57.4919 39.0531 57.8534 39.0209Z" fill="#263238"/>
<path d="M55.6289 38.0572C55.7471 38.0158 55.8516 37.9482 55.9655 37.8894C56.0941 37.8228 56.2012 37.7896 56.2868 37.6207C56.3326 37.5301 56.3158 37.3651 56.261 37.2901C56.133 37.1159 55.9622 37.1389 55.805 37.2097C55.6346 37.2865 55.5164 37.4104 55.417 37.6299C55.3202 37.8427 55.473 38.1117 55.6289 38.0572Z" fill="#263238"/>
<path d="M58.1531 38.6286C58.0337 38.5967 57.9269 38.5376 57.8111 38.4877C57.6803 38.4314 57.5721 38.4067 57.4807 38.2445C57.4316 38.1574 57.4427 37.9914 57.4947 37.9125C57.616 37.7284 57.7878 37.7379 57.9471 37.796C58.1201 37.859 58.2426 37.9737 58.3496 38.185C58.4535 38.3897 58.3107 38.6707 58.1531 38.6286Z" fill="#263238"/>
<path d="M55.5361 43.2294C55.5992 43.3243 55.6619 43.4545 55.7587 43.4691C55.8518 43.4829 55.9616 43.4227 56.0476 43.3752C56.0561 43.3706 56.0644 43.3841 56.0589 43.3961C55.9877 43.5476 55.8406 43.64 55.7169 43.605C55.5961 43.5707 55.538 43.4131 55.5102 43.2471C55.5064 43.2237 55.5268 43.2156 55.5361 43.2294Z" fill="#263238"/>
<path d="M57.0894 41.5228C57.0894 41.5228 57.1008 42.1203 57.0806 42.3978C57.0787 42.4237 56.5537 42.2704 55.9879 42.4563C55.9032 42.4842 55.9115 42.3812 56.0093 42.3139C56.2051 42.1791 56.4538 42.0527 56.9379 42.1302C56.9567 42.0555 56.909 41.2109 56.9387 41.2123C57.0414 41.2158 57.2344 41.3518 57.3509 41.424C57.3514 40.1783 57.218 38.9428 57.2311 37.7024C57.232 37.6581 57.2752 37.6518 57.2809 37.6925C57.4822 38.9729 57.5026 40.4062 57.5244 41.6927C57.5284 41.853 57.1606 41.5822 57.0894 41.5228Z" fill="#263238"/>
<path d="M56.558 42.1854C56.558 42.1854 56.3714 42.8857 56.0596 43.0736C55.7007 43.2903 55.5778 42.8056 55.944 42.3777C56.136 42.1532 56.558 42.1854 56.558 42.1854Z" fill="#263238"/>
<path d="M56.1834 42.9646C56.143 43.0106 56.1027 43.0496 56.0576 43.0743C55.7277 43.2726 55.5971 42.8796 55.863 42.4832C56.0436 42.5044 56.2403 42.6035 56.1834 42.9646Z" fill="#FF99BA"/>
<path d="M52.6117 39.7652C53.0456 39.9638 53.5449 38.0171 53.6861 37.2688C53.8105 36.6092 53.9541 34.5168 53.9752 34.3741C53.9963 34.2314 55.8672 36.2255 56.9611 35.7487C58.055 35.2718 58.7859 33.8077 58.8011 33.1241C58.8161 32.4409 57.4581 30.7059 56.2828 30.6171C55.1075 30.5282 53.5167 32.7563 53.5167 32.7563C53.5167 32.7563 54.0571 31.7938 54.0388 31.7148C54.0205 31.6359 53.2611 32.0883 53.1215 32.8951C53.1215 32.8951 53.2717 31.8823 53.2143 31.8635C53.1569 31.8448 52.5669 32.7121 52.7 33.3694C52.7 33.3694 52.0174 34.2513 51.9543 35.218C51.8909 36.1852 52.1019 39.5319 52.6117 39.7652Z" fill="#263238"/>
<path d="M57.7393 35.4081C57.4068 35.6364 57.0735 35.8874 56.7059 35.9596C56.3086 36.0378 55.8964 35.8892 55.5266 35.6775C55.1483 35.4615 54.8046 35.1479 54.4923 34.7645C54.2187 34.4286 53.9761 34.0232 53.6839 33.7241C53.6108 33.6494 53.5261 33.8062 53.5712 33.9068C54.0148 34.8994 54.7997 35.7281 55.556 36.086C56.3518 36.4623 57.0999 36.1975 57.7435 35.4212C57.7473 35.4162 57.7447 35.4042 57.7393 35.4081Z" fill="#263238"/>
<path d="M53.0666 39.5918C53.0666 39.5918 52.393 37.5521 51.7854 37.8827C51.1779 38.2133 51.5519 41.0319 52.1718 41.548C52.792 42.0641 53.1233 41.2174 53.1233 41.2174L53.0666 39.5918Z" fill="#EB9481"/>
<path d="M51.9072 38.687C51.8968 38.6831 51.8925 38.7047 51.901 38.7125C52.3335 39.0969 52.5105 39.7904 52.6123 40.491C52.5015 40.2049 52.329 40.0226 52.0752 40.2138C52.062 40.2237 52.0705 40.2545 52.084 40.2534C52.2791 40.2364 52.4104 40.3165 52.5148 40.5713C52.5886 40.7519 52.6297 40.9682 52.6752 41.1675C52.6904 41.234 52.7683 41.2181 52.76 41.1437C52.7592 41.1381 52.7585 41.1324 52.7578 41.1268C52.8599 40.252 52.5295 38.9199 51.9072 38.687Z" fill="#263238"/>
<path d="M48.6159 48.6954C48.1519 52.7055 51.0547 66.2184 52.9237 68.7424C55.7032 72.4958 60.8421 74.9639 62.7043 75.7668C63.5157 76.1169 65.7611 67.5986 64.9402 67.0375C63.1815 65.836 57.7181 63.2943 57.2038 62.6415C56.6895 61.9888 53.5501 55.2514 52.1543 51.3659C50.282 46.1526 48.8506 46.6669 48.6159 48.6954Z" fill="#EB9481"/>
<path d="M63.557 66.2881C63.557 66.2881 65.9804 67.2092 67.5461 67.9229C68.4197 68.3208 69.8765 69.2026 70.4285 69.9329C71.2542 71.0253 74.2401 76.3803 73.3852 77.4883C72.6112 78.4912 70.4377 73.4045 70.4377 73.4045C70.4377 73.4045 72.9352 78.248 71.8546 79.1999C70.774 80.1518 68.8305 73.9175 68.8305 73.9175C68.8305 73.9175 71.3218 78.9797 70.1033 79.6987C69.1825 80.2417 67.2091 74.7434 67.2091 74.7434C67.2091 74.7434 69.3301 79.1167 68.3993 79.7362C67.3707 80.4208 65.3356 75.5158 65.3356 75.5158C62.7918 76.496 61.3118 75.411 60.3205 74.452C60.0805 74.2191 63.557 66.2881 63.557 66.2881Z" fill="#EB9481"/>
<path d="M69.646 71.6466C69.9531 72.1995 70.2666 72.7564 70.5398 73.3482C70.8129 73.9401 71.0726 74.5469 71.3075 75.1742C71.8838 76.7127 72.0836 77.8104 72.0663 77.7446C71.6576 76.1884 70.7016 74.0467 70.4285 73.4544C70.1558 72.8636 69.9032 72.2526 69.6308 71.6611C69.6237 71.6462 69.6386 71.6335 69.646 71.6466Z" fill="#263238"/>
<path d="M68.1955 73.0788C68.7219 73.7011 69.8262 76.0188 70.2522 77.5714C70.27 77.6366 70.2465 77.6313 70.2206 77.5721C69.887 76.805 68.5396 73.8304 68.1831 73.0909C68.1777 73.0792 68.1884 73.0703 68.1955 73.0788Z" fill="#263238"/>
<path d="M66.8012 73.9745C67.4107 74.8743 67.9224 76.1027 68.3249 77.5226C68.3432 77.5867 68.3087 77.5768 68.2836 77.5163C67.7921 76.3226 67.4121 75.3809 66.776 74.006C66.7661 73.9844 66.787 73.9536 66.8012 73.9745Z" fill="#263238"/>
<path d="M51.2576 48.9903C49.0905 44.4188 47.7956 46.1134 48.2302 51.0754C48.6365 55.716 49.727 61.2444 49.727 61.2444L55.1954 57.2937C55.1954 57.2937 52.6443 51.9161 51.2576 48.9903Z" fill="#FFC727"/>
<path d="M52.5823 50.7878C52.6597 51.0498 52.7022 51.3206 52.7361 51.5935C52.7658 51.8679 52.7871 52.144 52.7731 52.4297C52.6955 52.1677 52.653 51.8969 52.6193 51.624C52.5899 51.3493 52.5688 51.0732 52.5823 50.7878Z" fill="white"/>
<path d="M49.3457 53.5671C49.5213 53.4516 49.7029 53.3886 49.8859 53.3377C50.0698 53.2934 50.2549 53.2616 50.4465 53.2824C50.2708 53.3982 50.0893 53.4616 49.9063 53.5118C49.7224 53.5557 49.537 53.5872 49.3457 53.5671Z" fill="white"/>
<path d="M49.4872 46.4585C49.4176 46.7254 49.3194 46.9615 49.214 47.1906C49.1051 47.4157 48.989 47.6338 48.8438 47.8207C48.9131 47.5538 49.0115 47.3173 49.1169 47.0886C49.2261 46.8635 49.3421 46.6458 49.4872 46.4585Z" fill="white"/>
<path d="M54.1002 55.7021C54.0307 55.9687 53.9324 56.2052 53.827 56.4342C53.7181 56.6594 53.6023 56.8774 53.457 57.0643C53.5263 56.7974 53.6246 56.561 53.7302 56.3323C53.8394 56.1075 53.9554 55.8894 54.1002 55.7021Z" fill="white"/>
<path d="M50.3176 58.475C50.1386 58.3712 49.9803 58.2247 49.8267 58.0675C49.6758 57.905 49.5296 57.7319 49.4043 57.5156C49.5832 57.619 49.7415 57.7655 49.8951 57.9231C50.046 58.0856 50.192 58.2587 50.3176 58.475Z" fill="white"/>
<path d="M51.9844 50.3663C52.2754 50.9635 52.577 51.549 52.8775 52.1356C52.8013 51.8389 52.7353 51.5391 52.6765 51.2329C52.6739 51.2187 52.6874 51.2127 52.6909 51.2262C52.7517 51.4609 52.8191 51.6924 52.8773 51.9285C52.9053 52.0421 52.9337 52.1551 52.9629 52.268C52.9693 52.2924 52.9757 52.3165 52.9822 52.3405C53.2159 52.7983 53.4488 53.2571 53.6737 53.724C53.9422 54.2815 54.2013 54.8486 54.4617 55.4147C54.7306 55.9995 54.9857 56.6852 55.2698 57.2537C55.2945 57.3029 54.7859 57.6095 54.7384 57.6488C54.6898 57.6891 54.6568 57.6187 54.7085 57.5953C54.7562 57.5737 55.159 57.2045 55.164 57.1971C54.9038 56.6264 54.6015 56.0986 54.329 55.5407C54.058 54.9853 53.7858 54.4313 53.5228 53.8674C52.9888 52.7218 52.4985 51.5317 51.9685 50.3812C51.9616 50.3666 51.9773 50.3518 51.9844 50.3663Z" fill="#263238"/>
<path d="M48.3654 54.3583C48.4485 54.5998 48.538 54.8387 48.6116 55.0869C48.6419 55.1895 48.6718 55.2922 48.7022 55.3948C48.5776 54.5113 48.4554 53.627 48.3341 52.742C48.3327 52.7317 48.3431 52.7264 48.345 52.737C48.5957 54.1696 48.8489 55.6009 49.0815 57.0402C49.3034 58.4123 49.5713 59.8014 49.6983 61.2015C49.774 61.1643 50.1996 60.9017 50.2119 60.9427C50.2242 60.9841 49.6556 61.3835 49.648 61.3502C49.3385 59.982 49.1467 58.4279 48.9362 57.0197C48.8769 56.6232 48.8216 56.2257 48.7649 55.8281C48.7032 55.5888 48.6284 55.3584 48.5555 55.1258C48.4784 54.8798 48.4162 54.6221 48.3486 54.37C48.3446 54.3555 48.3605 54.3442 48.3654 54.3583Z" fill="#263238"/>
<path d="M49.8129 59.8804C50.5726 59.2414 53.7467 56.7907 54.4568 56.3287C54.5059 56.2965 54.5318 56.3344 54.4833 56.3772C52.2384 58.3723 50.598 59.3515 49.8309 59.9232C49.8119 59.9374 49.7936 59.8967 49.8129 59.8804Z" fill="#263238"/>
<path d="M136.779 152.946H64.4688L74.9247 64.4988H147.235L136.779 152.946Z" fill="#D63232"/>
<path d="M99.672 55.3391H76.0065L74.9238 64.4989H100.25L99.672 55.3391Z" fill="#D63232"/>
<g opacity="0.1">
<path d="M136.779 152.946H64.4688L74.9247 64.4988H147.235L136.779 152.946Z" fill="black"/>
<path d="M99.672 55.3391H76.0065L74.9238 64.4989H100.25L99.672 55.3391Z" fill="black"/>
</g>
<path d="M73.4546 59.0756C73.3611 58.5623 73.34 58.0487 73.3359 57.5354C73.3393 57.0217 73.3604 56.5084 73.4546 55.9951C73.5486 56.5084 73.5697 57.0221 73.5733 57.5354C73.5692 58.049 73.5481 58.5623 73.4546 59.0756Z" fill="#263238"/>
<path d="M71.351 59.9829C71.0978 59.608 70.9074 59.179 70.732 58.7376C70.5628 58.2905 70.409 57.8299 70.3184 57.3152C70.5721 57.6897 70.7624 58.1188 70.9373 58.5606C71.1061 59.008 71.2601 59.4686 71.351 59.9829Z" fill="#263238"/>
<path d="M69.8335 62.3366C69.4886 62.2007 69.1799 61.9713 68.8799 61.7196C68.5834 61.4584 68.2958 61.1745 68.0449 60.7964C68.39 60.9316 68.6988 61.161 68.9985 61.4134C69.2945 61.6754 69.5821 61.9589 69.8335 62.3366Z" fill="#263238"/>
<path d="M69.3094 65.5068C68.9653 65.6463 68.6209 65.6778 68.2768 65.6838C67.9326 65.6785 67.5883 65.6474 67.2441 65.5068C67.5883 65.3666 67.9326 65.3351 68.2768 65.3298C68.6209 65.3359 68.965 65.3674 69.3094 65.5068Z" fill="#263238"/>
<path d="M69.9175 68.6436C69.6661 69.0213 69.3785 69.3052 69.0825 69.5668C68.7828 69.8192 68.474 70.0486 68.1289 70.1838C68.38 69.8057 68.6677 69.5218 68.9638 69.2606C69.2638 69.0089 69.5726 68.7791 69.9175 68.6436Z" fill="#263238"/>
<path d="M71.4955 70.9062C71.4044 71.4206 71.2506 71.8812 71.0819 72.3286C70.9067 72.7708 70.7164 73.1998 70.4629 73.574C70.5536 73.0593 70.7073 72.5987 70.8766 72.1516C71.0519 71.7102 71.2423 71.2811 71.4955 70.9062Z" fill="#263238"/>
<path d="M73.6206 71.689C73.7141 72.2026 73.7353 72.7159 73.7393 73.2292C73.7357 73.7425 73.7148 74.2562 73.6206 74.7695C73.5264 74.2562 73.5055 73.7425 73.502 73.2292C73.506 72.7159 73.5271 72.2026 73.6206 71.689Z" fill="#263238"/>
<path d="M75.7246 70.782C75.9778 71.1569 76.1679 71.5859 76.3436 72.0274C76.5128 72.4745 76.6666 72.935 76.7572 73.4497C76.5035 73.0752 76.3134 72.6461 76.1383 72.2044C75.9695 71.7565 75.8157 71.2963 75.7246 70.782Z" fill="#263238"/>
<path d="M77.2402 68.428C77.5851 68.5639 77.8939 68.7933 78.1938 69.045C78.4903 69.3063 78.7779 69.5902 79.0288 69.9682C78.6837 69.833 78.3749 69.6036 78.0752 69.3512C77.7792 69.0896 77.4916 68.8057 77.2402 68.428Z" fill="#263238"/>
<path d="M77.7656 65.2578C78.1098 65.1183 78.4541 65.0868 78.7983 65.0808C79.1424 65.0861 79.4868 65.1173 79.8309 65.2578C79.4865 65.398 79.1424 65.4295 78.7983 65.4348C78.4539 65.4288 78.1098 65.3976 77.7656 65.2578Z" fill="#263238"/>
<path d="M77.1582 62.1216C77.4095 61.7438 77.6972 61.4599 77.9931 61.1983C78.2929 60.9463 78.6017 60.7165 78.9467 60.5813C78.6956 60.9594 78.408 61.2433 78.1118 61.5045C77.8118 61.7562 77.503 61.9856 77.1582 62.1216Z" fill="#263238"/>
<path d="M75.5801 59.8587C75.6712 59.3443 75.825 58.8837 75.9938 58.4363C76.1689 57.9941 76.3592 57.5651 76.6127 57.1909C76.5221 57.7056 76.3683 58.1662 76.199 58.6133C76.0234 59.0547 75.8331 59.4838 75.5801 59.8587Z" fill="#263238"/>
<path d="M136.673 152.946H64.2066L53.918 67.7097H126.384L136.673 152.946Z" fill="#D63232"/>
<path d="M79.0296 119.816C80.6931 119.816 82.0416 117.804 82.0416 115.323C82.0416 112.842 80.6931 110.83 79.0296 110.83C77.3661 110.83 76.0176 112.842 76.0176 115.323C76.0176 117.804 77.3661 119.816 79.0296 119.816Z" fill="#263238"/>
<path d="M102.84 119.816C104.504 119.816 105.852 117.804 105.852 115.323C105.852 112.842 104.504 110.83 102.84 110.83C101.177 110.83 99.8281 112.842 99.8281 115.323C99.8281 117.804 101.177 119.816 102.84 119.816Z" fill="#263238"/>
<path d="M95.2609 120.533L95.0957 120.062C95.0805 120.02 93.5248 115.73 90.3939 115.73C87.5385 115.73 86.8424 119.769 86.8142 119.941L86.7297 120.456L86.0391 120.207L86.1221 119.692C86.1302 119.641 86.9706 114.668 90.3939 114.668C93.9627 114.668 95.6561 119.369 95.7263 119.569L95.8917 120.04L95.2609 120.533Z" fill="#263238"/>
<path d="M131.863 114.807C132.018 114.757 132.172 114.703 132.325 114.645" stroke="#263238" stroke-miterlimit="10"/>
<path d="M133.237 114.242C136.868 112.414 139.908 108.154 140.194 103.178C140.824 92.2038 131.864 86.1419 132.79 73.461C133.673 61.3644 142.179 60.5014 145.589 62.1733C149.355 64.0201 148.065 69.4197 144.655 68.723C138.743 67.5152 135.027 57.9285 137.835 47.0536C139.933 38.929 145.162 35.8647 147.286 34.9302" stroke="#263238" stroke-miterlimit="10" stroke-dasharray="4 4"/>
<path d="M147.742 34.7411C148.036 34.6281 148.204 34.5811 148.204 34.5811" stroke="#263238" stroke-miterlimit="10"/>
<path d="M151.968 32.6259C151.362 29.8279 147.309 30.8333 148.1 34.4887C148.891 38.1444 152.574 35.4239 151.968 32.6259Z" fill="#263238"/>
<path d="M145.895 31.4978C145.925 30.2708 147.07 29.3267 148.688 29.7621C150.305 30.1979 151.829 31.8231 151.829 31.8231C151.829 31.8231 150.229 33.2827 148.595 33.54C146.96 33.7977 145.865 32.7308 145.895 31.4978Z" fill="#EBEBEB"/>
<path d="M151.829 31.8232C150.989 31.8317 150.15 31.7899 149.311 31.7517C148.473 31.6982 147.634 31.6487 146.797 31.5474C147.637 31.5382 148.476 31.5807 149.315 31.6189C150.153 31.6727 150.992 31.7226 151.829 31.8232Z" fill="#263238"/>
<path d="M147.521 30.4114C147.765 30.5735 147.989 30.7792 148.215 30.981C148.436 31.1962 148.659 31.4079 148.862 31.6631C148.619 31.5013 148.395 31.2957 148.168 31.0932C147.948 30.8783 147.726 30.6666 147.521 30.4114Z" fill="#263238"/>
<path d="M149.72 31.7078C149.507 31.9772 149.276 32.2034 149.046 32.4331C148.811 32.6498 148.577 32.8703 148.324 33.0469C148.537 32.7776 148.768 32.551 148.998 32.3216C149.233 32.105 149.467 31.8851 149.72 31.7078Z" fill="#263238"/>
<path d="M149.965 31.0166C150.09 31.097 150.194 31.217 150.299 31.3341C150.398 31.463 150.499 31.5887 150.578 31.7547C150.453 31.6747 150.349 31.5543 150.244 31.4372C150.145 31.3079 150.044 31.1819 149.965 31.0166Z" fill="#263238"/>
<path d="M147.437 38.7805C147.942 39.7494 149.241 39.5168 150.382 37.7525C151.524 35.9878 152.123 33.3406 152.123 33.3406C152.123 33.3406 150.253 33.5519 148.826 34.7693C147.398 35.9864 146.929 37.807 147.437 38.7805Z" fill="#EBEBEB"/>
<path d="M152.122 33.3403C151.437 34.066 150.773 34.8317 150.108 35.5946C149.449 36.3695 148.788 37.1412 148.148 37.9533C148.833 37.228 149.497 36.4619 150.162 35.699C150.822 34.9241 151.482 34.1524 152.122 33.3403Z" fill="#263238"/>
<path d="M149.182 38.2433C149.315 37.8996 149.417 37.5371 149.521 37.1757C149.616 36.8086 149.713 36.4429 149.779 36.0581C149.645 36.4015 149.543 36.7643 149.439 37.1258C149.344 37.4929 149.247 37.8585 149.182 38.2433Z" fill="#263238"/>
<path d="M150.456 35.274C150.178 35.241 149.901 35.2591 149.625 35.2729C149.349 35.3023 149.073 35.3278 148.799 35.4046C149.077 35.4379 149.353 35.4198 149.63 35.4057C149.906 35.3759 150.182 35.3501 150.456 35.274Z" fill="#263238"/>
<path d="M150.926 35.6212C150.996 35.4466 151.033 35.2587 151.073 35.0718C151.103 34.8806 151.135 34.6909 151.134 34.4873C151.064 34.6618 151.027 34.8498 150.987 35.0367C150.957 35.2279 150.925 35.418 150.926 35.6212Z" fill="#263238"/>
<path d="M151.967 32.6259C151.593 32.8058 151.192 32.4999 151.072 31.9424C150.951 31.3848 151.156 30.7873 151.53 30.6071C151.903 30.4269 152.304 30.7331 152.425 31.2907C152.546 31.8482 152.341 32.4461 151.967 32.6259Z" fill="#455A64"/>
<path d="M152.404 34.6449C152.031 34.8247 151.63 34.5188 151.509 33.9613C151.388 33.4037 151.594 32.8062 151.968 32.626C152.341 32.4462 152.742 32.752 152.863 33.3096C152.983 33.8668 152.778 34.4647 152.404 34.6449Z" fill="#455A64"/>
<path d="M74.5982 33.7436C74.2583 38.5895 71.3477 42.1086 68.0991 41.6017C66.7861 41.3967 65.6189 40.5655 64.7152 39.324L61.7559 39.9719L63.2366 36.1557C62.8773 34.852 62.7261 33.4009 62.8307 31.9074C63.1706 27.0615 66.0813 23.5424 69.3299 24.0493C72.5785 24.5562 74.9378 28.8977 74.5982 33.7436Z" fill="white"/>
<path d="M74.5981 33.7436C74.4745 35.3543 74.0798 36.9331 73.4043 38.216C73.2491 38.552 73.0493 38.8327 72.8682 39.1368C72.6626 39.4037 72.4709 39.6968 72.244 39.9252C71.8113 40.4222 71.325 40.8119 70.8171 41.1103C70.3114 41.4279 69.7672 41.5794 69.2246 41.6767C68.951 41.6987 68.6769 41.7359 68.4028 41.7001C68.1282 41.6909 67.8545 41.647 67.5842 41.573C66.5017 41.2806 65.4764 40.5248 64.6576 39.4179L64.7276 39.4501L61.7712 40.1269L61.5566 40.1761L61.6653 39.894L63.1373 36.0704L63.1304 36.2212C62.4134 33.7029 62.575 30.7038 63.4947 28.3571C63.9532 27.1822 64.5926 26.1698 65.3473 25.4147C66.1016 24.6575 66.9764 24.1828 67.8718 24.0019C68.7682 23.8245 69.6908 23.9463 70.5468 24.3704C71.4017 24.7998 72.1856 25.522 72.8281 26.4569C74.1336 28.3086 74.7901 31.0868 74.5981 33.7436ZM74.5981 33.7436C74.778 31.0847 74.1085 28.3235 72.802 26.4965C72.1533 25.5828 71.368 24.8908 70.5207 24.489C69.672 24.0929 68.7642 23.9983 67.8899 24.1948C67.0163 24.3948 66.1702 24.8802 65.4468 25.6342C64.7253 26.39 64.1165 27.3783 63.677 28.5136C63.2287 29.6464 62.9965 30.9442 62.9263 32.2469C62.871 33.5539 63.0139 34.8768 63.3426 36.0906L63.3639 36.1696L63.3357 36.2418L61.8464 40.0501L61.7406 39.8172L64.7027 39.1984L64.7435 39.1899L64.7727 39.2306C65.5557 40.3269 66.5466 41.0923 67.6053 41.407C67.8697 41.4866 68.1379 41.5366 68.4077 41.5525C68.6771 41.595 68.947 41.5652 69.2173 41.5507C69.7529 41.4686 70.2929 41.3334 70.7972 41.0318C71.3034 40.7489 71.7928 40.3783 72.2241 39.8848C72.451 39.66 72.6427 39.3708 72.8487 39.1071C73.0303 38.8065 73.2308 38.529 73.3868 38.1959C74.0653 36.9243 74.4671 35.3532 74.5981 33.7436Z" fill="#263238"/>
<path d="M65.8223 36.9395C65.8223 36.4127 66.0674 36.0322 66.4009 36.0322C66.754 36.0322 66.9797 36.4127 66.9797 36.9395C66.9797 37.4517 66.754 37.8464 66.4009 37.8464C66.0577 37.8464 65.8223 37.4514 65.8223 36.9395ZM66.0674 34.847L65.93 27.824H66.8718L66.7343 34.847H66.0674Z" fill="#D63232"/>
<path d="M68.0781 36.9395C68.0781 36.4127 68.3233 36.0322 68.657 36.0322C69.0101 36.0322 69.2358 36.4127 69.2358 36.9395C69.2358 37.4517 69.0101 37.8464 68.657 37.8464C68.3136 37.8464 68.0781 37.4514 68.0781 36.9395ZM68.3233 34.847L68.1861 27.824H69.1279L68.9907 34.847H68.3233Z" fill="#D63232"/>
<path d="M70.334 36.9395C70.334 36.4127 70.5791 36.0322 70.9128 36.0322C71.266 36.0322 71.4915 36.4127 71.4915 36.9395C71.4915 37.4517 71.2658 37.8464 70.9128 37.8464C70.5694 37.8464 70.334 37.4514 70.334 36.9395ZM70.5794 34.847L70.442 27.824H71.3837L71.2465 34.847H70.5794Z" fill="#D63232"/>
</svg>